# xmcd CD database file
#
# Track frame offsets:
#	150
#	16032
#	25638
#	40794
#	61371
#	70868
#	88396
#	103922
#	117570
#	132078
#	147540
#	170124
#	186441
#	205753
#	224247
#	233757
#
# Disc length: 3346 seconds
#
# Revision: 0
# Processed by: cddbd v1.5.2PL0 Copyright (c) Steve Scherf et al.
# Submitted via: CDex 1.51
#
DISCID=f50d1010
DTITLE=Various Artist - The Music Of Nashville - Season 1 - Volume 2
DYEAR=2013
DGENRE=Country
TTITLE0=Sam Palladio and Clare Bowen - Fade Into You
TTITLE1=Lennon Stella and Maisy Stella - Ho Hey
TTITLE2=Sam Palladio - Gun For A Mouth
TTITLE3=Hayden Panettiere - We Are Water
TTITLE4=Clare Bowen - Looking For A Place To Shine
TTITLE5=Connie Britton - Stronger Than Me
TTITLE6=Connie Britton - Bitter Memory
TTITLE7=Jonathan Jackson - Let There Be Lonely
TTITLE8=Hayden Panettiere - Hypnotizing
TTITLE9=Clare Bowen and Sam Palladio - I Will Fall (Studio Version)
TTITLE10=Hayden Panettiere - Nothing In This World Will Ever Break My Heart Again
TTITLE11=Hayden Panettiere - Consider Me (Studio Version)
TTITLE12=Jonathan Jackson - Keep Asking Why (Studio Version)
TTITLE13=Clare Bowen and Chris Carmack - You Ain't Dolly
TTITLE14=Charles Esten - Matchbox Blues
TTITLE15=Sam Palladio - Shine
EXTD=YEAR: 2013
EXTT0=
EXTT1=
EXTT2=
EXTT3=
EXTT4=
EXTT5=
EXTT6=
EXTT7=
EXTT8=
EXTT9=
EXTT10=
EXTT11=
EXTT12=
EXTT13=
EXTT14=
EXTT15=
PLAYORDER=
